<svg width="1200" height="720" viewBox="0 0 1200 720" fill="none" xmlns="http://www.w3.org/2000/svg">
  <rect width="1200" height="720" rx="48" fill="#120A1F"/>
  <rect x="54" y="54" width="1092" height="612" rx="36" fill="url(#paint0_linear)"/>
  <circle cx="353" cy="228" r="182" fill="#D7CCEB" fill-opacity="0.1"/>
  <path d="M256 448C256 389.458 303.458 342 362 342H838C896.542 342 944 389.458 944 448V448C944 506.542 896.542 554 838 554H362C303.458 554 256 506.542 256 448V448Z" fill="#F6F2FF" fill-opacity="0.08" stroke="#F6F2FF" stroke-opacity="0.16" stroke-width="2"/>
  <path d="M366 448C430 386 516 398 594 448C674 499 756 511 834 448" stroke="#F6F2FF" stroke-width="16" stroke-linecap="round"/>
  <text x="144" y="158" fill="#F6F2FF" font-family="Manrope, sans-serif" font-size="64" font-weight="800">Mental wellbeing</text>
  <text x="144" y="222" fill="#DDD3F1" font-family="Manrope, sans-serif" font-size="28" font-weight="500">Movement, mood, stress, and the everyday rhythms that shape how we feel.</text>
  <defs>
    <linearGradient id="paint0_linear" x1="600" y1="54" x2="600" y2="666" gradientUnits="userSpaceOnUse">
      <stop stop-color="#25163C"/>
      <stop offset="1" stop-color="#120A1F"/>
    </linearGradient>
  </defs>
</svg>
