<svg width="24" height="24" viewBox="0 0 24 24" fill="none" xmlns="http://www.w3.org/2000/svg">
<path d="M2 14.7895C2 12.7777 2.43378 10.9662 3.30133 9.35495C4.16889 7.74391 5.15178 6.35403 6.25 5.18532C7.34822 4.01684 8.40167 3.07748 9.41033 2.36725C10.4188 1.65701 11.0598 1.20127 11.3333 1V4.28269C11.3333 5.33405 11.6794 6.1655 12.3717 6.77703C13.0641 7.38834 13.8402 7.69399 14.7 7.69399C15.1033 7.69399 15.488 7.61883 15.854 7.4685C16.2198 7.31795 16.5642 7.08257 16.8873 6.76236L17.4743 6.15652C18.8437 7.07666 19.9402 8.29631 20.764 9.81548C21.588 11.3349 22 12.9929 22 14.7895C22 16.8345 21.4709 18.6726 20.4127 20.3039C19.3547 21.9351 17.9838 23.1497 16.3 23.9475C16.7291 23.4628 17.0641 22.9118 17.305 22.2943C17.5461 21.6769 17.6667 21.0174 17.6667 20.3158C17.6667 19.5548 17.5257 18.8297 17.2437 18.1404C16.9614 17.4511 16.5562 16.8363 16.028 16.2959L12 12.2627L8.00533 16.2959C7.46333 16.8504 7.04922 17.4666 6.763 18.1445C6.47656 18.8222 6.33333 19.546 6.33333 20.3158C6.33333 21.0174 6.45389 21.6769 6.695 22.2943C6.93589 22.9118 7.27089 23.4628 7.7 23.9475C6.01622 23.1497 4.64533 21.9351 3.58733 20.3039C2.52911 18.6726 2 16.8345 2 14.7895ZM12 15.1255L14.6027 17.7338C14.9462 18.0854 15.2094 18.4781 15.3923 18.912C15.5752 19.3457 15.6667 19.8137 15.6667 20.3158C15.6667 21.334 15.3098 22.2025 14.596 22.9213C13.8824 23.6404 13.0171 24 12 24C10.9829 24 10.1176 23.6404 9.404 22.9213C8.69022 22.2025 8.33333 21.334 8.33333 20.3158C8.33333 19.8364 8.42267 19.3763 8.60133 18.9356C8.78 18.4946 9.04533 18.094 9.39733 17.7338L12 15.1255Z" fill="black"/>
</svg>
